# xmcd
#
# Track frame offsets: 
#        183
#        15033
#        28758
#        40233
#        51708
#        63933
#        79533
#        96933
#        109458
#        123408
#        135558
#        150033
#        165183
#        182958
#        201408
#        219783
#        234258
#        244008
#        258183
#        272508
#        282033
#        292308
#
# Disc length: 4106 seconds
#
# Revision: 6
# Processed by: cddbd v1.5.2PL0 Copyright (c) Steve Scherf et al.
# Submitted via: ExactAudioCopy v0.99pb5
#
DISCID=29100816
DTITLE=Various Artist - Traumreise der Erinnerung - CD 5
DYEAR=1990
DGENRE=Schlager
TTITLE0=Peter Alexander - Der letzte Walzer
TTITLE1=Freddy Quinn - Irgendwann gibt's ein Wiedersehn
TTITLE2=Renate Kern - Alle Blumen brauchen Sonne
TTITLE3=Bernd Spier - Das war mein schönster Tanz
TTITLE4=Karel Gott - Weißt du wohin
TTITLE5=Howard Carpendale - Deine Spuren im Sand
TTITLE6=Mireille Mathieu - La Paloma Ade
TTITLE7=Caterina Valente and Silvio Francesco - Quando, Quando, Quando
TTITLE8=Rocco Granata - Buona notte
TTITLE9=Connie Francis - Schöner fremder Mann
TTITLE10=Rex Gildo - Marie, der letzte Tanz ist nur für dich
TTITLE11=Roy Black - Das Mädchen Carina
TTITLE12=Uli Martin - Monika
TTITLE13=Howard Carpendale - Ti Amo
TTITLE14=Peter Alexander - Leben heißt lieben
TTITLE15=Mary Roos - Nur die Liebe läßt uns leben
TTITLE16=Joe Dassin - Es gibt Mädchen so zum Träumen
TTITLE17=Bata Illic - Michaela
TTITLE18=Vicky Leandros - Karussell d'amour
TTITLE19=Drafi Deutscher - Heute male ich dein Bild, Cindy Lou
TTITLE20=Sacha Distel - Der Platz neben mir
TTITLE21=Andrea Jürgens - Ein Herz für Kinder
EXTD=YEAR: 1990
EXTT0=
EXTT1=
EXTT2=
EXTT3=
EXTT4=
EXTT5=
EXTT6=
EXTT7=
EXTT8=
EXTT9=
EXTT10=
EXTT11=
EXTT12=
EXTT13=
EXTT14=
EXTT15=
EXTT16=
EXTT17=
EXTT18=
EXTT19=
EXTT20=
EXTT21=
PLAYORDER=
